<?xml version="1.0" encoding="UTF-8" standalone="no"?>
<!-- Created with Inkscape (http://www.inkscape.org/) -->

<svg
   xmlns:dc="http://purl.org/dc/elements/1.1/"
   xmlns:cc="http://creativecommons.org/ns#"
   xmlns:rdf="http://www.w3.org/1999/02/22-rdf-syntax-ns#"
   xmlns:svg="http://www.w3.org/2000/svg"
   xmlns="http://www.w3.org/2000/svg"
   xmlns:sodipodi="http://sodipodi.sourceforge.net/DTD/sodipodi-0.dtd"
   xmlns:inkscape="http://www.inkscape.org/namespaces/inkscape"
   width="708.66138"
   height="708.66138"
   id="svg3945"
   version="1.1"
   inkscape:version="0.48.4 r9939"
   sodipodi:docname="New document 14">
  <defs
     id="defs3947" />
  <sodipodi:namedview
     id="base"
     pagecolor="#ffffff"
     bordercolor="#666666"
     borderopacity="1.0"
     inkscape:pageopacity="0.0"
     inkscape:pageshadow="2"
     inkscape:zoom="0.35"
     inkscape:cx="35"
     inkscape:cy="520"
     inkscape:document-units="px"
     inkscape:current-layer="layer1"
     showgrid="false"
     units="cm"
     inkscape:window-width="1366"
     inkscape:window-height="744"
     inkscape:window-x="0"
     inkscape:window-y="24"
     inkscape:window-maximized="1" />
  <metadata
     id="metadata3950">
    <rdf:RDF>
      <cc:Work
         rdf:about="">
        <dc:format>image/svg+xml</dc:format>
        <dc:type
           rdf:resource="http://purl.org/dc/dcmitype/StillImage" />
        <dc:title></dc:title>
      </cc:Work>
    </rdf:RDF>
  </metadata>
  <g
     inkscape:label="Layer 1"
     inkscape:groupmode="layer"
     id="layer1"
     transform="translate(0,-343.69947)">
    <path
       inkscape:connector-curvature="0"
       style="fill:#000000;stroke:#000000;stroke-width:2.11322665px;stroke-linecap:butt;stroke-linejoin:miter;stroke-opacity:1;display:inline"
       d="m 141.90922,344.76008 c -20.69595,-0.17687 -22.20775,5.49061 -23.90587,10.30198 -2.26416,6.41515 21.16998,20.33982 21.92472,33.54748 -7.9246,-0.75472 -53.594828,-5.24535 -38.50035,14.00013 6.79253,7.54723 16.21711,14.35861 9.04725,16.24542 -7.16988,1.88681 -24.868158,7.91517 -12.415198,19.61339 6.792498,6.41516 18.075628,13.91524 4.490598,21.46246 -13.585048,7.54724 -22.283218,17.40583 2.24531,28.72667 9.43405,4.90572 15.12277,2.65096 4.55664,12.08501 -10.566138,9.43405 -17.349198,17.71715 -1.12266,23.37758 16.22657,5.66043 24.89646,7.52838 24.89646,7.52838 0,0 -21.91529,18.84923 -17.76431,28.66063 4.15099,9.81141 47.6046,3.50372 55.07597,-3.43399 5.60353,8.53872 9.0811,0.54136 12.28314,18.953 3.20202,18.41163 20.76516,62.47024 37.5758,75.81201 16.81064,13.34175 42.96922,26.69457 12.28305,31.76443 -30.68596,5.06988 -49.32417,4.81008 -56.52874,5.87742 -7.20453,1.06735 -20.53624,1.30098 -14.1322,9.83971 6.40406,8.53872 1.29396,9.62718 3.96231,17.63224 2.66835,8.00504 -5.86566,16.02587 -13.60389,18.16053 -7.73822,2.13471 -24.56025,4.77957 -12.019,15.45298 12.54126,10.67339 19.08509,10.35857 23.0474,19.41527 3.96229,9.05667 8.32082,24.52851 25.49079,27.7361 17.16996,3.20756 23.00021,5.2642 31.30218,6.2076 8.30203,0.94339 19.2832,2.64153 19.2832,2.64153 0,0 8.83963,2.05664 2.04708,10.16991 -6.79232,8.11329 -3.99062,36.44373 -3.23577,44.17965 0.75463,7.73592 1.18869,13.40579 1.18869,13.40579 0,0 -10.96236,2.6321 -16.24543,1.12263 -5.28308,-1.50943 -15.2926,-3.94343 -21.33041,4.35854 -6.03777,8.30196 -15.12277,14.53786 -9.8397,29.25499 5.28306,14.7171 3.56101,43.52764 36.91534,75.54785 33.35454,32.0202 83.85938,66.8969 111.40677,66.8969 27.54739,0 35.47199,-12.0756 31.69841,-34.34 -3.77359,-22.26434 0.038,-13.9812 14.00012,-8.3208 13.96231,5.6604 59.58539,17.0002 78.45354,10.9624 18.86817,-6.0378 96.26509,-53.61376 114.37841,-89.08579 18.1133,-35.47202 29.41527,-85.24606 4.88684,-126.00114 -24.52865,-40.75509 -62.30257,-80.78375 -77.39693,-94.36878 -15.09457,-13.58502 -50.66758,-37.95595 -49.06659,-39.55695 1.60098,-1.60104 44.34732,-35.74418 53.95341,-60.29301 5.87034,-11.74074 10.14097,-17.11466 26.1512,-16.04731 16.01001,1.06732 29.88524,0.52327 19.74535,-18.68886 -10.13969,-19.21213 -0.5748,-18.67107 10.63228,-13.86804 11.20707,4.80302 20.86113,7.47338 14.99059,-13.33975 -5.87032,-20.81315 4.22286,-13.31293 11.16058,-15.98128 6.93773,-2.66835 26.17126,-6.94607 -2.11322,-32.02859 -28.28449,-25.0825 5.34541,-17.61613 12.28313,-19.21715 6.93772,-1.601 1.07479,-14.92635 -13.86805,-21.33039 -14.94283,-6.40404 -5.37796,-12.26702 10.63207,-13.86804 16.01023,-1.601 29.90342,-5.88044 4.8209,-38.43431 -25.08252,-32.55391 -61.89007,-48.0206 -86.97259,-46.95326 -25.08252,1.06735 -28.84429,8.4901 -36.8494,24.50021 -8.0049,16.01011 -14.80906,17.63941 -40.74554,5.08496 0,0 -69.46283,-44.52871 -147.19956,-13.20766 -27.16996,10.94349 -33.16054,18.51903 -50.51921,20.40584 -17.35869,1.88679 -26.08517,-43.77399 -73.63278,-50.18914 -11.88689,-1.60379 -20.90348,-2.31841 -27.80213,-2.37738 z m 134.32199,212.70949 c 6.94259,0.0596 14.2666,2.35079 20.40574,6.73591 14.03246,10.02313 2.47312,32.84196 -4.29239,38.10411 -6.7657,5.26215 -24.00012,1.73313 -34.274,-5.28307 -10.27366,-7.01619 -6.55945,-19.75831 -3.30191,-28.52855 4.22857,-7.47038 12.53651,-11.10496 21.46256,-11.0284 z m 71.38734,5.48117 c 6.44872,-0.0601 14.44412,1.45988 20.60396,3.96231 8.21305,3.33654 14.66939,19.19419 17.2361,29.71724 2.56653,10.52301 -1.01455,21.86293 -4.09437,28.79271 -3.08002,6.9298 -15.4348,16.94468 -21.59464,20.53792 -6.15984,3.59322 -17.44446,2.81719 -22.32095,2.04719 -4.87648,-0.76996 -9.7703,-5.63107 -16.44344,-10.76424 -6.67315,-5.13317 -8.68854,-12.33093 -9.97189,-18.49073 -1.28316,-6.15983 -0.78486,-13.88868 -0.52831,-23.64173 0.25676,-9.75303 7.43052,-17.45333 15.38704,-24.89646 2.0532,-1.53992 9.24197,-5.12994 15.91512,-6.66986 1.6684,-0.38499 3.66202,-0.5743 5.81138,-0.59435 z m 74.49125,5.01892 c 7.05521,0.18955 15.22262,2.95777 19.1511,5.34909 5.71438,3.4783 10.16674,11.17581 11.16059,16.64168 0.99385,5.46588 -3.19161,13.40862 -6.66997,17.63222 -3.47817,4.22369 -12.95873,6.25469 -18.42459,7.00007 -5.46587,0.74533 -14.92424,-2.99022 -20.1418,-7.46233 -5.21736,-4.47208 -6.17611,-13.7134 -5.6793,-20.67001 0.49703,-6.95657 5.93985,-12.11924 12.15106,-16.83977 2.25163,-1.24223 5.24608,-1.73709 8.45291,-1.65095 z m 13.00965,107.3123 c 0,0 -3.19541,2.39426 -26.94365,8.65101 -23.74844,6.25675 -74.71059,5.51924 -92.32158,4.55664 0,0 -12.53735,-1.44729 -26.6795,-4.09437 -14.14234,-2.64709 -13.87185,-4.57566 -6.93411,-4.09438 6.93772,0.48131 14.1491,2.21178 25.62286,3.89627 11.47397,1.68452 32.78968,1.87255 49.0666,2.11323 16.27692,0.24064 50.95094,-4.57459 60.55703,-7.46234 9.60611,-2.88774 17.63235,-3.56606 17.63235,-3.56606 z"
       id="path3077" />
  </g>
</svg>
